# xmcd
# 
# Track frame offsets:
#     154
#     34883
#     62312
#     78199
#     113177
#     135663
#     150722
#     170620
#     198441
#     220784
#     233583
#     250465
#     271947
# 
# Disc length: 4071
# 
# Revision: 4
# Processed by: cddbd v1.5.2PL0 Copyright (c) Steve Scherf et al.
# Submitted via: fre:ac v1.0.17
# 
DISCID=ab0fe50d
DTITLE=A Fine Frenzy - Pines
DYEAR=2012
DGENRE=Folk
TTITLE0=Pinesong
TTITLE1=Winds of Wander
TTITLE2=Avalanches (Culla`s Song)
TTITLE3=Riversong
TTITLE4=The Sighting
TTITLE5=Dream in the Dark
TTITLE6=Sailingsong
TTITLE7=Sadseasong
TTITLE8=They Can`t if you Don`t Let Them
TTITLE9=Dance of the Gray Whales
TTITLE10=It`s Alive
TTITLE11=Now is the Start
TTITLE12=Untitled (Grasses Grow)
EXTD=YEAR: 2012
EXTT0=
EXTT1=
EXTT2=
EXTT3=
EXTT4=
EXTT5=
EXTT6=
EXTT7=
EXTT8=
EXTT9=
EXTT10=
EXTT11=
EXTT12=
PLAYORDER=
